<?xml version="1.0" encoding="UTF-8" standalone="no"?>
<svg width="20px" height="20px" viewBox="0 0 20 20" version="1.1" xmlns="http://www.w3.org/2000/svg" xmlns:xlink="http://www.w3.org/1999/xlink" xmlns:sketch="http://www.bohemiancoding.com/sketch/ns">
    <!-- Generator: Sketch 3.4 (15588) - http://www.bohemiancoding.com/sketch -->
    <title>date-filter-icon</title>
    <desc>Created with Sketch.</desc>
    <defs></defs>
    <g id="Page-1" stroke="none" stroke-width="1" fill="none" fill-rule="evenodd" sketch:type="MSPage">
        <g id="date-filter-icon" sketch:type="MSLayerGroup" fill="#000000">
            <g id="XMLID_53_" sketch:type="MSShapeGroup">
                <g id="XMLID_111_">
                    <path d="M10,0 C4.5,0 0,4.5 0,10 C0,15.5 4.5,20 10,20 C15.5,20 20,15.5 20,10 C20,4.5 15.5,0 10,0 L10,0 Z M10,18 C5.6,18 2,14.4 2,10 C2,5.6 5.6,2 10,2 C14.4,2 18,5.6 18,10 C18,14.4 14.4,18 10,18 L10,18 Z M11,9.6 L11,6 C11,5.4 10.6,5 10,5 C9.5,5 9,5.5 9,6 L9,9.9 C9,10.2 9.1,10.5 9.3,10.7 L11.3,12.7 C11.7,13.1 12.3,13.1 12.7,12.7 C13.1,12.3 13.1,11.7 12.7,11.3 L11,9.6 L11,9.6 Z" id="XMLID_112_"></path>
                </g>
            </g>
        </g>
    </g>
</svg>