<?xml version="1.0" encoding="UTF-8" standalone="no"?>
<!-- Generator: Adobe Illustrator 16.0.4, SVG Export Plug-In . SVG Version: 6.00 Build 0)  -->

<svg
   xmlns:dc="http://purl.org/dc/elements/1.1/"
   xmlns:cc="http://creativecommons.org/ns#"
   xmlns:rdf="http://www.w3.org/1999/02/22-rdf-syntax-ns#"
   xmlns:svg="http://www.w3.org/2000/svg"
   xmlns="http://www.w3.org/2000/svg"
   xmlns:xlink="http://www.w3.org/1999/xlink"
   xmlns:sodipodi="http://sodipodi.sourceforge.net/DTD/sodipodi-0.dtd"
   xmlns:inkscape="http://www.inkscape.org/namespaces/inkscape"
   version="1.1"
   id="Layer_1"
   x="0px"
   y="0px"
   width="166"
   height="130"
   viewBox="90 70 166 130"
   enable-background="new 90 70 180 140"
   xml:space="preserve"
   inkscape:version="0.48.4 r9939"
   sodipodi:docname="logo_homepage_small.normal.v103.svg"><metadata
   id="metadata116"><rdf:RDF><cc:Work
       rdf:about=""><dc:format>image/svg+xml</dc:format><dc:type
         rdf:resource="http://purl.org/dc/dcmitype/StillImage" /></cc:Work></rdf:RDF></metadata><defs
   id="defs114" /><sodipodi:namedview
   pagecolor="#ffffff"
   bordercolor="#666666"
   borderopacity="1"
   objecttolerance="10"
   gridtolerance="10"
   guidetolerance="10"
   inkscape:pageopacity="0"
   inkscape:pageshadow="2"
   inkscape:window-width="968"
   inkscape:window-height="480"
   id="namedview112"
   showgrid="false"
   inkscape:zoom="17.976226"
   inkscape:cx="80.630361"
   inkscape:cy="127.39433"
   inkscape:window-x="0"
   inkscape:window-y="0"
   inkscape:window-maximized="0"
   inkscape:current-layer="Layer_1" />
<g
   id="g3"
   transform="matrix(1,0,0,0.99897797,-6.75,-4.8564161)">
	
		<linearGradient
   id="SVGID_1_"
   gradientUnits="userSpaceOnUse"
   x1="568.86908"
   y1="976.28607"
   x2="568.86908"
   y2="879.93359"
   gradientTransform="translate(-387,-805)">
		<stop
   offset="0"
   style="stop-color:#D14427"
   id="stop6" />
		<stop
   offset="1"
   style="stop-color:#E55225"
   id="stop8" />
	</linearGradient>
	<path
   d="m 224.021,123.11 c 0,23.279 -18.872,42.154 -42.152,42.154 -23.28,0 -42.152,-18.875 -42.152,-42.154 0,-23.28 18.871,-42.152 42.152,-42.152 23.279,0 42.152,18.872 42.152,42.152 z m 6.024,0 c 0,26.604 -21.57,48.176 -48.176,48.176 -26.606,0 -48.176,-21.571 -48.176,-48.176 0,-26.605 21.571,-48.177 48.176,-48.177 26.605,0 48.176,21.571 48.176,48.177 z m -3.973,0 c 0,-24.41 -19.793,-44.2 -44.203,-44.2 -24.409,0 -44.203,19.791 -44.203,44.2 0,24.409 19.794,44.2 44.203,44.2 24.41,0.001 44.203,-19.79 44.203,-44.2 z"
   id="path10"
   inkscape:connector-curvature="0"
   style="fill:url(#SVGID_1_)" />
	<g
   id="g12">
		<g
   id="g14">
			<g
   id="g16">
				<g
   id="g18">
					<g
   id="g20">
						<g
   id="g22">
							<defs
   id="defs24">
								<path
   id="SVGID_2_"
   d="m 224.187,122.996 c 0,23.333 -18.981,42.313 -42.317,42.313 -23.331,0 -42.312,-18.982 -42.312,-42.313 0,-23.331 18.981,-42.311 42.312,-42.311 23.335,0 42.317,18.981 42.317,42.311 z"
   inkscape:connector-curvature="0" />
							</defs>
							<clipPath
   id="SVGID_3_">
								<use
   xlink:href="#SVGID_2_"
   overflow="visible"
   id="use28"
   style="overflow:visible"
   x="0"
   y="0"
   width="180"
   height="140" />
							</clipPath>
							<g
   clip-path="url(#SVGID_3_)"
   id="g30">
								<path
   d="m 198.799,184.638 c -1.454,-6.691 -9.901,-21.834 -13.104,-28.237 -3.201,-6.405 -6.411,-15.434 -4.949,-21.257 0.265,-1.06 -2.774,-9.131 -1.901,-9.702 6.794,-4.433 8.587,0.483 11.308,-1.505 1.404,-1.027 3.303,0.846 3.791,-0.854 1.742,-6.111 -2.428,-16.764 -7.081,-21.421 -1.522,-1.518 -3.854,-2.471 -6.485,-2.977 -1.013,-1.384 -2.644,-2.714 -4.956,-3.939 -2.575,-1.371 -8.173,-3.18 -11.077,-3.663 -2.012,-0.332 -2.468,0.232 -3.327,0.372 0.802,0.07 4.602,1.949 5.343,2.059 -0.74,0.5 -2.912,-0.023 -4.299,0.599 -0.698,0.315 -1.221,1.516 -1.216,2.083 3.965,-0.4 10.154,-0.013 13.809,1.614 -2.909,0.332 -7.333,0.7 -9.235,1.7 -5.53,2.914 -7.972,9.719 -6.517,17.873 1.457,8.136 7.863,37.832 9.902,47.749 2.04,9.901 -4.367,16.303 -8.443,18.05 l 4.367,0.294 -1.455,3.204 c 5.236,0.579 11.059,-1.165 11.059,-1.165 -1.161,3.2 -9.025,4.369 -9.025,4.369 0,0 3.788,1.159 9.899,-1.169 6.116,-2.327 9.9,-3.785 9.9,-3.785 l 2.912,7.569 5.536,-5.528 2.327,5.822 c 0.005,0.002 4.372,-1.458 2.917,-8.155 z"
   id="path32"
   inkscape:connector-curvature="0"
   style="fill:#b5b5b5" />
								<path
   d="m 200.557,183.279 c -1.449,-6.693 -9.896,-21.838 -13.104,-28.242 -3.201,-6.407 -6.404,-15.434 -4.947,-21.254 0.27,-1.057 0.274,-5.385 1.152,-5.959 6.791,-4.437 6.311,-0.148 9.032,-2.136 1.405,-1.024 2.529,-2.265 3.019,-3.966 1.748,-6.115 -2.426,-16.765 -7.084,-21.423 -1.518,-1.518 -3.85,-2.473 -6.48,-2.977 -1.011,-1.387 -2.642,-2.714 -4.952,-3.941 -4.354,-2.312 -9.75,-3.235 -14.75,-2.328 0.799,0.074 2.628,1.726 3.365,1.836 -1.115,0.755 -4.081,0.659 -4.062,2.339 3.97,-0.397 8.319,0.23 11.979,1.855 -2.909,0.331 -5.617,1.049 -7.519,2.053 -5.534,2.908 -6.99,8.731 -5.534,16.889 1.458,8.152 7.866,37.848 9.896,47.746 2.041,9.898 -4.362,16.303 -8.438,18.05 l 4.366,0.291 -1.454,3.208 c 5.236,0.577 11.059,-1.167 11.059,-1.167 -1.161,3.207 -9.025,4.366 -9.025,4.366 0,0 3.784,1.165 9.898,-1.168 6.12,-2.326 9.904,-3.781 9.904,-3.781 l 2.908,7.57 5.534,-5.531 2.334,5.823 c -0.001,0 4.364,-1.458 2.903,-8.153 z"
   id="path34"
   inkscape:connector-curvature="0"
   style="fill:#ffffff" />
								<path
   d="m 167.085,116.429 c 0,-1.689 1.368,-3.059 3.06,-3.059 1.688,0 3.057,1.369 3.057,3.059 0,1.691 -1.369,3.059 -3.057,3.059 -1.692,-0.002 -3.06,-1.368 -3.06,-3.059 z"
   id="path36"
   inkscape:connector-curvature="0"
   style="fill:#2d4f8e" />
								<path
   d="m 170.708,115.41 c 0,-0.44 0.356,-0.795 0.791,-0.795 0.438,0 0.794,0.354 0.794,0.795 0,0.438 -0.356,0.794 -0.794,0.794 -0.434,0.001 -0.791,-0.355 -0.791,-0.794 z"
   id="path38"
   inkscape:connector-curvature="0"
   style="fill:#ffffff" />
								<path
   d="m 187.957,114.615 c 0,-1.448 1.182,-2.625 2.627,-2.625 1.455,0 2.629,1.176 2.629,2.625 0,1.454 -1.176,2.63 -2.629,2.63 -1.447,0 -2.627,-1.176 -2.627,-2.63 z"
   id="path40"
   inkscape:connector-curvature="0"
   style="fill:#2d4f8e" />
								<path
   d="m 191.072,113.741 c 0,-0.374 0.305,-0.68 0.676,-0.68 0.385,0 0.682,0.306 0.682,0.68 0,0.378 -0.297,0.679 -0.682,0.679 -0.371,0 -0.676,-0.301 -0.676,-0.679 z"
   id="path42"
   inkscape:connector-curvature="0"
   style="fill:#ffffff" />
								
									<linearGradient
   id="SVGID_4_"
   gradientUnits="userSpaceOnUse"
   x1="551.0957"
   y1="913.58691"
   x2="558.01562"
   y2="913.58691"
   gradientTransform="translate(-387,-805)">
									<stop
   offset="0.0056"
   style="stop-color:#6176B9"
   id="stop45" />
									<stop
   offset="0.691"
   style="stop-color:#394A9F"
   id="stop47" />
								</linearGradient>
								<path
   d="m 171.015,107.568 c 0,0 -2.305,-1.042 -4.546,0.366 -2.237,1.406 -2.155,2.845 -2.155,2.845 0,0 -1.189,-2.651 1.981,-3.95 3.175,-1.3 4.72,0.739 4.72,0.739 z"
   id="path49"
   inkscape:connector-curvature="0"
   style="fill:url(#SVGID_4_)" />
								
									<linearGradient
   id="SVGID_5_"
   gradientUnits="userSpaceOnUse"
   x1="572.86328"
   y1="911.48053"
   x2="579.16412"
   y2="911.48053"
   gradientTransform="translate(-387,-805)">
									<stop
   offset="0.0056"
   style="stop-color:#6176B9"
   id="stop52" />
									<stop
   offset="0.691"
   style="stop-color:#394A9F"
   id="stop54" />
								</linearGradient>
								<path
   d="m 192.164,107.357 c 0,0 -1.655,-0.946 -2.94,-0.93 -2.639,0.035 -3.36,1.201 -3.36,1.201 0,0 0.442,-2.781 3.822,-2.224 1.83,0.305 2.478,1.953 2.478,1.953 z"
   id="path56"
   inkscape:connector-curvature="0"
   style="fill:url(#SVGID_5_)" />
							</g>
						</g>
					</g>
				</g>
			</g>
		</g>
		<path
   d="m 179.505,128.222 c 0.305,-1.851 5.086,-5.351 8.471,-5.562 3.393,-0.213 4.448,-0.166 7.275,-0.842 2.832,-0.677 10.122,-2.493 12.139,-3.426 2.023,-0.934 10.581,0.462 4.548,3.826 -2.612,1.461 -9.646,4.144 -14.674,5.644 -5.021,1.502 -8.067,-1.435 -9.737,1.035 -1.328,1.963 -0.27,4.652 5.731,5.21 8.105,0.751 15.876,-3.65 16.73,-1.312 0.859,2.338 -6.965,5.255 -11.73,5.348 -4.758,0.09 -14.355,-3.146 -15.789,-4.147 -1.442,-1.002 -3.363,-3.337 -2.964,-5.774 z"
   id="path58"
   inkscape:connector-curvature="0"
   style="fill:#fdd20a" />
	</g>
	<g
   id="g60">
		<g
   id="g62">
			<path
   d="m 97.75,204.696 v -19.751 h 7.158 c 6.814,0 9.918,5.007 9.918,9.662 0,5.021 -3.066,10.086 -9.918,10.086 l -7.158,0.003 0,0 z m 2.276,-2.275 h 4.882 c 5.279,0 7.643,-3.938 7.643,-7.842 0,-3.585 -2.392,-7.444 -7.643,-7.444 h -4.882 v 15.286 z"
   id="path64"
   inkscape:connector-curvature="0"
   style="fill:#4c4c4c" />
		</g>
		<g
   id="g66">
			<path
   d="m 123.839,204.924 c -3.657,0 -6.02,-2.52 -6.02,-6.418 v -7.669 h 2.133 v 7.641 c 0,2.807 1.633,4.484 4.37,4.484 2.565,-0.029 4.426,-1.998 4.426,-4.684 v -7.441 h 2.134 v 13.859 h -1.938 l -0.122,-2.411 -0.331,0.416 c -1.15,1.446 -2.715,2.195 -4.652,2.223 z"
   id="path68"
   inkscape:connector-curvature="0"
   style="fill:#4c4c4c" />
		</g>
		<g
   id="g70">
			<path
   d="m 141.287,204.951 c -3.605,0 -7.243,-2.224 -7.243,-7.186 0,-4.298 2.911,-7.186 7.243,-7.186 1.896,0 3.562,0.677 4.953,2.01 l -1.341,1.393 c -0.944,-0.881 -2.233,-1.382 -3.555,-1.382 -3.025,0 -5.138,2.124 -5.138,5.165 0,3.57 2.566,5.168 5.11,5.168 1.431,0 2.73,-0.511 3.672,-1.438 l 1.394,1.395 c -1.403,1.369 -3.116,2.061 -5.095,2.061 z"
   id="path72"
   inkscape:connector-curvature="0"
   style="fill:#4c4c4c" />
		</g>
		<g
   id="g74">
			<polygon
   points="151.293,196.903 157.214,190.838 159.973,190.838 153.442,197.368 160.771,204.668 160.771,204.696 158.066,204.696 151.293,197.923 151.293,204.696 149.188,204.696 149.188,184.974 151.293,184.974 "
   id="polygon76"
   style="fill:#4c4c4c" />
		</g>
		<g
   id="g78">
			<path
   d="m 163.393,204.696 v -19.751 h 7.157 c 6.815,0 9.919,5.007 9.919,9.662 0,5.021 -3.065,10.086 -9.919,10.086 l -7.157,0.003 0,0 z m 2.274,-2.275 h 4.882 c 5.279,0 7.644,-3.938 7.644,-7.842 0,-3.585 -2.392,-7.444 -7.644,-7.444 h -4.882 v 15.286 z"
   id="path80"
   inkscape:connector-curvature="0"
   style="fill:#4c4c4c" />
		</g>
		<g
   id="g82">
			<path
   d="m 189.479,204.924 c -3.657,0 -6.019,-2.52 -6.019,-6.418 v -7.669 h 2.134 v 7.641 c 0,2.807 1.634,4.484 4.368,4.484 2.564,-0.029 4.427,-1.998 4.427,-4.684 v -7.441 h 2.133 v 13.859 h -1.94 l -0.119,-2.411 -0.331,0.416 c -1.151,1.446 -2.715,2.195 -4.653,2.223 z"
   id="path84"
   inkscape:connector-curvature="0"
   style="fill:#4c4c4c" />
		</g>
		<g
   id="g86">
			<path
   d="m 206.93,204.951 c -3.605,0 -7.242,-2.224 -7.242,-7.186 0,-4.298 2.91,-7.186 7.242,-7.186 1.895,0 3.562,0.677 4.953,2.01 l -1.342,1.393 c -0.944,-0.881 -2.233,-1.382 -3.555,-1.382 -3.025,0 -5.138,2.124 -5.138,5.165 0,3.57 2.567,5.168 5.109,5.168 1.431,0 2.73,-0.511 3.673,-1.439 l 1.352,1.356 -0.07,0.072 0.039,0.039 c -1.389,1.321 -3.077,1.99 -5.021,1.99 z"
   id="path88"
   inkscape:connector-curvature="0"
   style="fill:#4c4c4c" />
		</g>
		<g
   id="g90">
			<polygon
   points="216.936,196.903 222.854,190.838 225.616,190.838 219.085,197.368 226.413,204.668 226.413,204.696 223.708,204.696 216.936,197.923 216.936,204.696 214.831,204.696 214.831,184.974 216.936,184.974 "
   id="polygon92"
   style="fill:#4c4c4c" />
		</g>
		<g
   id="g94">
			<path
   d="m 237.586,205.066 c -7.594,0 -10.288,-5.42 -10.288,-10.061 -0.015,-3.022 1.009,-5.721 2.878,-7.601 1.842,-1.851 4.395,-2.829 7.382,-2.829 2.704,0 5.249,1.027 7.177,2.894 l -1.29,1.501 c -1.515,-1.415 -3.759,-2.29 -5.885,-2.29 -5.503,0 -8.013,4.315 -8.013,8.325 0,3.944 2.494,7.927 8.069,7.927 2.031,0 3.922,-0.695 5.468,-2.016 l 0.07,-0.06 v -4.869 h -6.206 v -1.99 h 8.253 v 7.744 c -2.126,2.246 -4.609,3.325 -7.615,3.325 z"
   id="path96"
   inkscape:connector-curvature="0"
   style="fill:#4c4c4c" />
		</g>
		<g
   id="g98">
			<path
   d="m 255.037,204.951 c -4.164,0 -7.186,-3.009 -7.186,-7.156 0,-4.213 3.023,-7.271 7.186,-7.271 4.246,0 7.213,2.989 7.213,7.271 0,4.147 -3.033,7.156 -7.213,7.156 z m 0.027,-12.494 c -2.991,0 -5.08,2.196 -5.08,5.338 0,2.993 2.125,5.167 5.053,5.167 2.978,0 5.079,-2.125 5.108,-5.166 0.001,-3.095 -2.136,-5.339 -5.081,-5.339 z"
   id="path100"
   inkscape:connector-curvature="0"
   style="fill:#4c4c4c" />
		</g>
	</g>
	<g
   id="g102">
		<path
   d="m 183.174,153.494 c 0,0 -11.386,-6.072 -11.572,-3.609 -0.192,2.467 0,12.523 1.327,13.285 1.329,0.757 10.817,-4.934 10.817,-4.934 l -0.572,-4.742 z"
   id="path104"
   inkscape:connector-curvature="0"
   style="fill:#65bc46" />
		<path
   d="m 187.536,153.111 c 0,0 7.779,-5.884 9.491,-5.503 1.705,0.385 2.086,12.524 0.566,13.1 -1.52,0.562 -10.424,-3.081 -10.424,-3.081 l 0.367,-4.516 z"
   id="path106"
   inkscape:connector-curvature="0"
   style="fill:#65bc46" />
		<path
   d="m 180.417,154.138 c 0,3.981 -0.572,5.691 1.138,6.069 1.706,0.383 4.932,0 6.07,-0.757 1.139,-0.761 0.188,-5.88 -0.189,-6.837 -0.382,-0.945 -7.019,-0.182 -7.019,1.525 z"
   id="path108"
   inkscape:connector-curvature="0"
   style="fill:#43a244" />
		<path
   d="m 181.141,153.253 c 0,3.983 -0.571,5.692 1.138,6.072 1.705,0.382 4.931,0 6.071,-0.759 1.139,-0.761 0.188,-5.878 -0.191,-6.836 -0.382,-0.947 -7.018,-0.183 -7.018,1.523 z"
   id="path110"
   inkscape:connector-curvature="0"
   style="fill:#65bc46" />
	</g>
</g>
</svg>