<svg version="1.1" xmlns="http://www.w3.org/2000/svg" xmlns:xlink="http://www.w3.org/1999/xlink" x="0px" y="0px" width="140px" height="140px" viewBox="0 0 140 140" style="enable-background:new 0 0 140 140;" xml:space="preserve"><defs><circle id="SVGID_1_" cx="70" cy="70" r="70"/></defs><use xlink:href="#SVGID_1_" style="overflow:visible;fill:#5499CB;"/><clipPath id="SVGID_2_"><use xlink:href="#SVGID_1_" style="overflow:visible;"/></clipPath><g id="Balloon" style="clip-path:url(#SVGID_2_);"><line style="fill:none;stroke:#FFFFFF;stroke-miterlimit:10;" x1="-57.2" y1="-61.3" x2="57" y2="60.7"/><line style="fill:none;stroke:#3D3D3D;stroke-miterlimit:10;" x1="105.3" y1="54.4" x2="157.5" y2="-91.3"/><path style="fill:#E3CE36;" d="M56.6,39c0,0-117.6-70.1-154.2-170.2c-33.8-92.5,20-148.9,112.7-165.5 c83.9-15,135.2,14.1,150.3,96.5c15.1,82.8-20,148.9-66.1,229.1C99.4,28.9,85.4,45,56.6,39z"/><path style="fill:#FFEE78;" d="M-87-135.6c-26.7-73.1,1.3-123.6,59.9-149.8c-65.7,24.7-98.7,76.8-70.4,154.1 C-61-31.2,56.6,39,56.6,39C57.7,38.7-50.4-35.5-87-135.6z"/><path style="fill:#DF461F;" d="M60,38.2c0,0-101.7-73.6-136.1-174.2c-31.7-93,11.8-147.1,89.5-160.4 c70.3-12.1,114.7,18.6,130.3,100.9c15.6,82.7-11.8,147.1-47.9,225.1C95.7,29.7,84.5,45.2,60,38.2z"/><path style="fill:#DF461F;" d="M60,38.2c0,0-101.7-73.6-136.1-174.2c-31.7-93,11.8-147.1,89.5-160.4 c70.3-12.1,114.7,18.6,130.3,100.9c15.6,82.7-11.8,147.1-47.9,225.1C95.7,29.7,84.5,45.2,60,38.2z"/><path style="fill:#FF6E38;" d="M-62.8-140.8c-26.3-76.9-1-127.2,52.5-149.9C-72.7-271-104.4-219-76.1-136 C-41.7-35.4,60,38.2,60,38.2C62.3,38.9-30.3-45.7-62.8-140.8z"/><path style="fill:#029DB5;" d="M65.9,36.9c0,0-73.8-79.8-104.2-181.2c-28.1-93.8-2.6-143.9,48.7-151.4c46.5-6.8,78.6,26.6,95,108.7 c16.5,82.5,2.6,143.9-16.1,218.1C89.4,31.1,82.9,45.5,65.9,36.9z"/><path style="fill:#02C1DE;" d="M-25.9-144.1C-52.5-233-38-283.7,7.3-295.2c-49.2,9.1-73.1,59-45.6,150.9 C-7.9-42.9,65.9,36.9,65.9,36.9C67.7,37.8,4.5-42.7-25.9-144.1z"/><path style="fill:#E3CE36;" d="M73.7,35.2c0,0-37.2-87.9-62.3-190.5C-11.9-250.1-10.2-295,6.6-294.9c15.2,0.1,31.2,37,48.7,118.9 C72.8-93.7,76.8-36.2,81,32.9C81,32.9,80.8,46,73.7,35.2z"/><path style="fill:#FFEA52;" d="M20.9-155.1c-21-85.6-21.7-130.5-9.3-138.3c-1.7-0.9-3.4-1.4-5.1-1.4c-16.8-0.1-18.4,44.7,4.8,139.6 C36.5-52.7,73.7,35.2,73.7,35.2C80.8,46,42.2-68.3,20.9-155.1z"/><path style="opacity:0.35;enable-background:new ;" d="M165.4-200.2c-14.2-77.6-60.5-107.9-135.8-98.7 c15.4,8.1,58.1,72.3,61.2,165.2c3,87.9-3.4,143-9.8,172.6c12.3-3.1,18.3-10,18.3-10C145.4-51.3,180.6-117.4,165.4-200.2z"/></g><g id="Basket" style="clip-path:url(#SVGID_2_);"><path style="fill:#F2E1AA;" d="M83,94.3c0,0,40.5,6.2,41.8,6.6c2.5,0.7,2.4,2.3,2.4,2.3l-39,39.7l-50.3-30.1c0,0-0.9-3.1,3.1-5.6 C45.8,104.2,83,94.3,83,94.3z"/><path style="fill:#FFF9E6;" d="M97.6,125.1c0,0-32.4-4.2-38.1-6c-5.7-1.8-14.6-6.3-14.6-6.3s-0.9-3.1,3.1-5.6s30.8-10.6,39.3-13.1 L83,93.4c0,0-37.2,10.8-42,13.9c-4,2.5-3.1,5.6-3.1,5.6l50.3,30l28.1-28.6L97.6,125.1z"/><path style="fill:#B0A176;" d="M43.7,109c-1.9,0.7-4.4,1.9-2.7,2.9c1.6,0.9,11.8,4.4,23.2,6.9c10,2.2,15.5,3.2,23.9,2.8 c8.4-0.4,21.8-8.9,23.9-10.1c2.1-1.2,13.7-7.9,12.4-9.2c-1.6-1.6-41.4-7.1-41.4-7.1S45.6,108.3,43.7,109z"/><path style="fill:#B0A176;" d="M42.7,109.8c-1.9,0.7-4.4,1.9-2.7,2.9s12.1,4.6,23.5,7c10,2.2,15.2,1.6,15.2,1.6 c7.3,1.1,19.4-7.8,21.5-9c2.1-1.2,13.7-7.9,12.4-9.2C111,101.5,82.1,96,82.1,96S44.7,109.1,42.7,109.8z"/><path style="fill:#E0CE96;" d="M37.9,112.8c0,0,10.6,43.6,13.4,48.4s3.8,5.3,8.6,7.3s21.9,6.5,27.2,7.1s7.1,1.5,13.9-1.3 c6.8-2.8,20.4-11.1,22.2-12.8c1.8-1.8,3.3-2,3.8-9.3s0.6-48.3,0.2-49.4c0,0.1,0.1,0.5-0.4,0.9c-2.8,2.3-21.7,15.5-31.2,18.3 c-3.6,1.1-6.7,2.4-13.1,1.9C66.4,122,52.2,118.3,37.9,112.8z"/><polyline points="105.7,58.3 125.7,102.8 124.7,103.6 105.2,58.6 105.3,58.3 "/><polygon points="87.7,121.6 82.7,69.3 83.6,69.3 90.2,121.3 "/><polygon style="fill:#283D42;" points="57,60.7 80.4,51.9 80.6,55 57.3,64.8 "/><polygon style="fill:#57848F;" points="80.4,51.9 80.6,55 105.3,58.3 105.3,54.4 "/><g><path style="fill:#38555C;" d="M68,54.4L70.4,73c0.1,0.9,2.4,1.4,5.2,1c2.7-0.4,4.9-1.4,4.8-2.3L78,53.1L68,54.4z"/><path style="fill:#1A282B;" d="M78,53l-1.9,0.6l2.4,18.6c0.1,0.5-0.4,0.9-1.3,1.4c1.9-0.5,3.2-1.3,3.2-2L78,53z"/><ellipse transform="matrix(0.9921 -0.1253 0.1253 0.9921 -6.16 9.5706)" style="fill:#5F919C;" cx="73" cy="53.7" rx="5" ry="1.7"/><path style="fill:#38555C;" d="M78.5,51l2.4,18.6c0.1,0.9,2.4,1.4,5.2,1c2.7-0.4,4.9-1.4,4.8-2.3l-2.4-18.6L78.5,51z"/><path style="fill:#1A282B;" d="M88.5,50l-1.9,0.6L89,69.2c0.1,0.5-0.4,0.9-1.3,1.4c1.9-0.5,3.2-1.3,3.2-2L88.5,50z"/><ellipse transform="matrix(0.9921 -0.1253 0.1253 0.9921 -5.6562 10.8568)" style="fill:#5F919C;" cx="83.5" cy="50.4" rx="5" ry="1.7"/></g><g><path style="fill:#38555C;" d="M85.9,53.5l2.4,18.6c0.1,0.9,2.4,1.4,5.2,1s4.9-1.4,4.8-2.3l-2.4-18.6L85.9,53.5z"/><path style="fill:#38555C;" d="M76.3,56.1l2.4,18.6c0.1,0.9,2.4,1.4,5.2,1c2.7-0.4,4.9-1.4,4.8-2.3l-2.4-18.6L76.3,56.1z"/><path style="fill:#38555C;" d="M76.3,56.1l2.4,18.6c0.1,0.9,2.4,1.4,5.2,1c2.7-0.4,4.9-1.4,4.8-2.3l-2.4-18.6L76.3,56.1z"/><path style="fill:#1A282B;" d="M86.2,54.9l-1.9,0.6l2.4,18.6c0.1,0.5-0.4,0.9-1.3,1.4c1.9-0.5,3.2-1.3,3.2-2L86.2,54.9z"/><path style="fill:#1A282B;" d="M95.8,52.3L94,52.9l2.4,18.6c0.1,0.5-0.4,0.9-1.3,1.4c1.9-0.5,3.2-1.3,3.2-2L95.8,52.3z"/><ellipse transform="matrix(0.9921 -0.1253 0.1253 0.9921 -6.314 10.6215)" style="fill:#5F919C;" cx="81.3" cy="55.5" rx="5" ry="1.7"/><ellipse transform="matrix(0.9921 -0.1253 0.1253 0.9921 -5.911 11.8052)" style="fill:#5F919C;" cx="90.9" cy="52.9" rx="5" ry="1.7"/></g><polygon style="fill:#4E7780;" points="105.7,54.2 105.7,58.3 82.8,69.7 82.8,65.2 "/><polygon points="39.4,110.2 57.3,64.8 57.9,64.9 40,110.5 "/><polygon style="fill:#74B2BF;" points="57,60.7 82.8,65.2 82.8,69.7 57.3,64.8 "/><path style="fill:#B09D61;" d="M126.9,152.1c0.5-7.3,0.6-48.3,0.2-49.4c0,0.1,0.1,0.5-0.4,0.9c-2.8,2.3-21.7,15.5-31.2,18.3 c-3.6,1.1-6.6,2.4-12.8,1.9l7.2,52c3.4,0.4,5.6,0.6,11.1-1.6c6.8-2.8,20.4-11.1,22.2-12.8C124.8,159.7,126.4,159.4,126.9,152.1z"/><path style="fill:#FCF2CA;" d="M53.9,160.8l-11.6-46.4c-1.5-0.5-2.9-1.1-4.4-1.6c-2.2-0.8,10.6,43.6,13.4,48.4s3.8,5.3,8.6,7.3 s21.9,6.5,27.2,7.1c0,0-26-9.3-29.1-11.1C54.9,162.8,53.9,160.8,53.9,160.8z"/><path style="fill:#8C7A5B;" d="M96.5,97.1C89,96,83,95.2,83,95.2S45.6,108.3,43.6,109s-4.4,1.9-2.7,2.9s11.8,4.4,23.2,6.9 c10,2.2,15.5,3.2,23.9,2.8c2.8-0.1,6.2-1.2,9.5-2.6L96.5,97.1z"/><path style="fill:#8C7855;" d="M99.7,103.1c-5.4,0-9.8,6.1-9.8,13.7c0,1.5,0.2,3,0.5,4.4c6.4-1.2,14.4-5.6,18.8-8.2 C108,107.4,104.2,103.1,99.7,103.1z"/><path style="fill:#5B8C96;" d="M75.2,63.9L57,60.7l0.3,4.1l18.3,3.5C75.8,66.8,75.7,65.3,75.2,63.9z"/><polygon style="fill:#85CDDB;" points="82.1,69.5 82.8,69.7 82.8,65.2 82.1,65.1 "/><line style="fill:none;stroke:#757575;stroke-linecap:round;stroke-miterlimit:10;" x1="82.8" y1="64.9" x2="58.7" y2="-67.5"/></g><g id="Balloonist" style="clip-path:url(#SVGID_2_);"><path style="fill:#868C94;" d="M45.2,85.8l-3.7-13.4c-0.1-0.5-0.6-0.8-1.1-0.9l-6.3-0.3c-0.2,0-0.4,0.1-0.6,0.2 c-0.1,0.1-0.1,0.1-0.1,0.2l-0.7,0.8l0.7,0.2l3.6,13c0.1,0.5,0.6,0.9,1.1,0.9l5.9,0.4l0.2,0.6l0.8-0.9l0,0 C45.2,86.4,45.3,86.1,45.2,85.8z"/><path style="fill:#F5E5B5;" d="M33.4,72.7l0.8-1.4h0c-0.2,0-0.4,0.1-0.6,0.2c-0.1,0.1-0.1,0.1-0.1,0.2l-0.7,0.8L33.4,72.7z"/><path style="fill:#D99669;" d="M32,77c0.2,1.5,1,4.4,1.5,6.6l2.1-1C35.6,82.7,34.5,76,32,77z"/><path style="fill:#F5E5B5;" d="M33.7,81.9c-0.5-2.1-1-3.6-1.2-5c-0.2,0-0.4,0-0.5,0.1c0.2,1.5,1,4,1.5,6.3L33.7,81.9z"/><path style="fill:#825D41;" d="M51.5,67c0,0-0.6,9.3-2.3,11.4c-1.8,2.2-0.5,4.8,1.1,4.2c2.7-1,4.6-5.2,4.6-5.2L51.5,67z"/><g><defs><path id="SVGID_3_" d="M69.6,79.9c0,0,0.8-10.5,10.6-8.3c9.9,2.2,13.1-5.2,13.6-6.7c0,0,5.8,2.4,5.7,3.4c0,0-7.8,10.6-17.5,9.1 C71.4,75.9,69.6,79.9,69.6,79.9z"/></defs><clipPath id="SVGID_4_"><use xlink:href="#SVGID_3_" style="overflow:visible;"/></clipPath><g style="clip-path:url(#SVGID_4_);"><rect x="67.1" y="64.3" style="fill:#DE5833;" width="34.9" height="17.6"/><path style="fill:#CF522F;" d="M76.5,70c0,0,7.8,4.1,6.9,10.2l-13.2,1.7L76.5,70z"/><path style="fill:#A14025;" d="M73.4,70.1c0,0,7.8,4.1,6.9,10.2L67.1,82L73.4,70.1z"/><polygon style="fill:#E87736;" points="92.6,62.8 89.4,67.8 97.4,72.6 102,67.4 "/></g></g><path style="fill:#F5B07B;" d="M51.6,66.4c0,0-0.8,3.1,1,6.1c-1.5,3.6-0.1,7.1,1.8,10c0,0,5.6,3.4,9.1,0c3.5-3.4,6.7-6,6.5-12.9 C69.6,62.8,57,60.6,51.6,66.4z"/><path style="fill:#D99669;" d="M69.9,69.6c-0.2-4.7-4.2-7.4-9.6-6.7c3,0.9,2.1,4.2,2.2,7.2c0.3,6.9-1.8,13-2.4,13.2 c1.9,0.7,1.1,1.4,3.5-0.8C66.9,79.2,70.2,76.5,69.9,69.6z"/><path style="fill:#F5E5B5;" d="M56.4,81.8c-3.5-3-3.3-6.5-1.8-10c-1.8-3-1-6.1-1-6.1c0.8-0.8,1.7-1.5,2.7-2 c-1.8,0.5-3.5,1.4-4.7,2.8c0,0-0.8,3.1,1,6.1c-1.5,3.6-0.1,7.1,1.8,10c0,0,4.8,2.9,8.3,0.6C59.6,83.7,56.4,81.8,56.4,81.8z"/><g><defs><path id="SVGID_5_" d="M51.5,67.2c0,0-1.4-9.8,8.7-10.5c10.1-0.7,11,6,11.2,9s-1,9.2-2.9,10.8c-0.8,0.7-2,0.1-2.4-1.9 S66,70.4,66,69c0-1.4-1.6-3.1-4-3.1c-2,0-2.6,1.1-5,1.1c-2,0-2.1-1.2-3.5-1.2C52.1,65.8,51.5,67.2,51.5,67.2z"/></defs><clipPath id="SVGID_6_"><use xlink:href="#SVGID_5_" style="overflow:visible;"/></clipPath><g style="clip-path:url(#SVGID_6_);"><rect x="49.6" y="53.1" style="fill:#824B21;" width="22.8" height="25.6"/><path style="fill:#54321C;" d="M71.4,65.8c-0.1-2.3-0.8-6.6-5.2-8.3c-1,0-1.4,0.4-2.4,1.7c-1,1.3-1.6,3.9-1.2,7 c0,0.2,3.5,8.4,3.5,8.6c0.4,2,1.6,2.6,2.4,1.9C70.4,75,71.5,68.9,71.4,65.8z"/><path style="fill:#B8AF49;" d="M62.6,56.7l1.3,0c-1.1-0.2-2.2,0-3.6,0.1c-10.1,0.7-8.7,10.5-8.7,10.5s0.6-1.4,2-1.4h0.3 C53.9,63,55,57.2,62.6,56.7z"/><path style="fill:#733E19;" d="M57.2,66.5c0,0,0-0.2,0-0.5c0-0.5,0-1,0-1.4c0-0.3,0.1-0.6,0.1-0.9c0.1-0.3,0.1-0.7,0.2-1 c0.1-0.4,0.2-0.7,0.4-1.1c0.1-0.2,0.1-0.4,0.2-0.5s0.2-0.4,0.3-0.5l0.1-0.3l0.2-0.2c0.1-0.2,0.2-0.3,0.4-0.5 c0.1-0.2,0.3-0.3,0.4-0.4l0.4-0.4l0.4-0.4l0.4-0.3l0.4-0.2l0.4-0.2l0.4-0.2l0.4-0.1l0.6-0.2l0.5-0.1h0c0,0,0,0,0,0l0,0l-0.5,0.1 l-0.6,0.2L62,57.4l-0.4,0.2l-0.4,0.2l-0.4,0.3l-0.4,0.3L60,58.7l-0.4,0.4l-0.4,0.4c-0.1,0.1-0.2,0.3-0.3,0.5l-0.1,0.2l-0.1,0.2 c-0.1,0.2-0.2,0.3-0.3,0.5s-0.1,0.4-0.2,0.5c-0.1,0.3-0.3,0.7-0.4,1c-0.1,0.4-0.2,0.7-0.2,1c-0.1,0.3-0.1,0.6-0.1,0.9 c-0.1,0.6-0.1,1.1-0.1,1.4s0,0.5,0,0.5C57.4,66.4,57.3,66.5,57.2,66.5C57.2,66.5,57.2,66.5,57.2,66.5z"/></g></g><g><defs><path id="SVGID_7_" d="M132.7,61.5c0,0-3.9-4.8-13.1-1.3c-5.9,2.3-10.2,6.2-16.3,11S90.9,82,80.5,80.9l-5.5-1.4l-4.7,3.9 c2.4,0.5,4.7,1.2,6.8,2.2c3.4,1.6,11.1,3.4,19.3-1.2s13.3-9,17.2-12.5c3.8-3.5,11.6-6.4,14.1-6.4c1.6,0,3.1,0.5,4.4,1.5 C132.1,66.9,132.6,67.6,132.7,61.5z"/></defs><clipPath id="SVGID_8_"><use xlink:href="#SVGID_7_" style="overflow:visible;"/></clipPath><g style="clip-path:url(#SVGID_8_);"><rect x="65.3" y="58.4" style="fill:#DE5833;" width="69.8" height="29.7"/><polygon style="fill:#E87736;" points="114.7,59.2 120.9,71.7 114.8,74.6 108.8,62.8 "/><path style="fill:#C9502E;" d="M89.4,76.9c0,0,6.4,4.5,8.1,7.9l-9.7,3.8l-3.3-9.4L89.4,76.9z"/><path style="fill:#A14025;" d="M68,75.9l17.9,2.9c0,0,7.6,5,7.4,8.8l-29.4,0.9L68,75.9z"/><polygon style="fill:#E8A137;" points="113.7,60.7 119,72.1 116.3,73.6 110.5,61.9 "/><polygon style="fill:#A14025;" points="127.5,57.5 128.5,67.6 133.4,70 134,60 "/></g></g><g><defs><path id="SVGID_9_" d="M78.2,83.8c0,0,12.1-3.1,11.6,4.3c0,0,3.1,0.5,1.4,3.5c0,0,2.7,4.5-1.6,5c0,0,0.1,4-4.1,4.5 C85.5,101.1,83.9,88.3,78.2,83.8z"/></defs><clipPath id="SVGID_10_"><use xlink:href="#SVGID_9_" style="overflow:visible;"/></clipPath><g style="clip-path:url(#SVGID_10_);"><rect x="73.7" y="78.8" style="fill:#B1BEC9;" width="22" height="24"/><path style="fill:#8F9EB0;" d="M92.6,93.6l-0.2-0.1c0.1-0.4,0.1-0.7,0.1-1.1c0.9-1.6,1.3-3.3,0.7-5.2c-0.6-1.8-2.4-1.1-3.3,0.1 c0,0.1,0.1,0.2,0.1,0.3c0.4,0.7,0.6,1.5,0.4,2.2c0,0.1,0,0.2,0.1,0.3c0.1,1-0.6,1.8-1.6,2h-0.1c-0.2,0.7-0.1,1.4-0.5,2.2 c-1.1,1.8-3.9,2.2-5.8,2.6c-0.1,0-0.3,0.1-0.4,0.1l-0.1-0.1c-2-0.9-4.2,2.9-2,3.9c5.2,2.2,10.6-0.2,13.4-4.9 C93.7,95.3,93.6,94,92.6,93.6z"/><path style="fill:#9DA7B3;" d="M79.6,88.8c0,0,1.2-6.1,8.7-4.5c0,0-3.6-4.4-10.6-2.3S79.6,88.8,79.6,88.8z"/></g></g><g><defs><path id="SVGID_11_" d="M52.7,88.6c0.5,0.1-3.1,7-7.4,12.4c0,0-2.2-7.4-2.6-8.7c0,0-4.7,3.9-8.3,1.5c0,0,2.4,16,6,18.5 s5.6,1.7,7.7,0.6c2.1-1.1,5.6-7.5,5.6-7.5L52.7,88.6z"/></defs><clipPath id="SVGID_12_"><use xlink:href="#SVGID_11_" style="overflow:visible;"/></clipPath><g style="clip-path:url(#SVGID_12_);"><polygon style="fill:#824D24;" points="59,117.7 32.2,117.7 31.4,83.2 59,86.4 "/><path style="fill:#C4C266;" d="M53.9,88.7c0,0-5.5,11.8-8.7,13.6c-2.3,1.2-1.1-1.7-1.1-1.7c4.9-5.6,3.9-5.3,4.8-7.4l1.9-4.8 L53.9,88.7z"/><path style="fill:#6B3614;" d="M57.4,97.7c-0.3-0.2-0.4-0.6-0.2-0.9c0.5-1.1,0.7-2.4-0.3-3.2c-1-0.8-3.1-0.1-3.8,0.9l-5,6.9 c-0.3,0.4-0.6,0.8-0.9,1.3c-0.2,0.4-0.7,0.4-1.1,0.2c-0.2-0.1-0.3-0.3-0.3-0.5c-0.6-3.9-2.2-9-3.5-11.9c-1-2-4.2,1-4.2,1.2 c0.1,2.1,5.1,19.9,6,21.1c1.2,1.5,2.2,1.1,2.5,1.4c1.3,1.1,1.2,0.2,2.1-0.8c2-2.2,3.9-4.5,5.4-7l0.1-0.1c1.3-1.4,2.1-3.2,3.4-4.7 C58.7,100.1,58.4,98.5,57.4,97.7z"/><path style="fill:#C4C266;" d="M42.4,113.4c-2.1-1.6-5.2-12.8-6.4-19.1c-0.7-3.9-4.7,1.4-4.6,4.5c0.2,7.2,4.1,13,6.2,19.6 C38.7,122,44.1,114.6,42.4,113.4z"/></g></g><g><defs><path id="SVGID_13_" d="M61.5,83.1c0,0-8.5,2.3-9.5,8.4c-2.3,13.7,6.3,25.3,6.3,25.3s6.9,2.2,11.3,3.1c5.5,1.2,11.1,1.7,16.7,1.7 c0,0,0.2-33-7-37.2S64.6,81.7,61.5,83.1z"/></defs><clipPath id="SVGID_14_"><use xlink:href="#SVGID_13_" style="overflow:visible;"/></clipPath><g style="clip-path:url(#SVGID_14_);"><rect x="50" y="77.4" style="fill:#824D24;" width="40.8" height="49.9"/><path style="fill:#78411A;" d="M51.3,100.4c0,0,4.9,6.6,26.9-1.4l-1.1,26.5l-22.9-4.2L51.3,100.4z"/><path style="fill:#6B3614;" d="M66.9,83.9c0,0-5.4,4.5-5.6,12.6s2.1,17.8,2.6,18.5c0.5,0.7,1.9-13.2,6.3-19.5 c0.4-0.5-0.1-1.3-0.6-1.7l-2.8-1.7c-0.3-0.2-0.4-0.6-0.2-0.8c0.1-0.2,0.3-0.3,0.5-0.3l2.9-0.3c0.6-0.1,1.1-0.5,1.1-1.1l0.9-8.2 L66.9,83.9z"/><path style="fill:#522D13;" d="M90.9,113.7c-0.4-3.8-2.7-21.4-5.9-26.7c0-0.3-0.1-0.6-0.3-0.9c-2.7-4.8-8.1-7.7-13.6-7.3 c-1.6,0.1-3,1.2-3.4,2.8c-0.3,1.2,0.2,3.1,1.8,2.9c3.5-0.3,6.9,1.1,9.1,3.8c-1.8,1-3.2,2.3-3.3,3.5c-0.3,11.5-2.5,18.8-8.4,28.8 c2.9,0.2,8,1.3,10.9,1.7c3.3,0.4,7.1,1.1,10.5,0.6C90.5,120.3,91.2,116.9,90.9,113.7z"/></g></g><path style="fill:#FFFFFF;" d="M56.2,85.7c0,0-1.7,3.9-1,12.1c0.4,5,6,19.8,6,19.8l2.5,1.1c0,0-1.6-13.1-1.6-20 c0-6.9,4-15.7,4-15.7L56.2,85.7z"/><path style="fill:#C4CED9;" d="M54.6,88.4L54.3,90c2.8,1.6,6.2,2.6,6.2,2.6C58.3,91.7,56.3,90.2,54.6,88.4z"/><path style="fill:#C4CED9;" d="M57.3,84c0,0-1.5,7.2-0.2,14.4c1.3,7.2,2.8,13,2.8,13l-3.2-5.4l-2.5-9.5l0.6-10.2L57.3,84z"/><path style="fill:#DE5833;" d="M55.1,84c0,0-1.5,4.5,4.2,4.5s12.9-7.3,12.9-7.3L59.5,82L55.1,84z"/><path style="fill:#E8E4D2;" d="M53.4,86.6c-0.8,0.7-1.5,1.6-1.9,2.7c-0.1,0.4,0,0.8,0.4,0.9c0.1,0,0.2,0.1,0.3,0l0.8-0.1 c0.1,0,0.2,0.1,0.2,0.2c0,0.1,0,0.2-0.1,0.2l-1.8,1.6c-0.4,0.3-0.5,0.9-0.3,1.3c1.1,3,5.4,13.9,7.7,16.9c0,0-5.3-18-2.6-24.4 C57.6,82.4,53.4,86.6,53.4,86.6z"/><path style="fill:#FFFCED;" d="M52.4,93.4c-0.2-0.5,0-1,0.3-1.3l1.8-1.6c0.1-0.1,0.1-0.2,0.1-0.3c0-0.1-0.1-0.1-0.2-0.1l-0.8,0.1 c-0.4,0-0.7-0.3-0.7-0.6c0-0.1,0-0.2,0-0.3c0.4-1,1.1-1.9,1.9-2.7c0,0,0.8-0.8,1.5-1.4c0.6-2.2-2.9,1.4-2.9,1.4 c-0.8,0.7-1.5,1.6-1.9,2.7c-0.1,0.4,0,0.8,0.4,0.9c0.1,0,0.2,0.1,0.3,0l0.8-0.1c0.1,0,0.2,0.1,0.2,0.2c0,0.1,0,0.2-0.1,0.2 l-1.8,1.6C51,92.4,50.8,93,51,93.4c1.1,3,5.4,13.9,7.7,16.9c0,0-0.6-2-1.3-4.9C55.4,101.1,53.2,95.5,52.4,93.4z"/><path style="fill:#C4CED9;" d="M65.3,86.4c0,0-2.5,6.2-9.3,9.3c0,0,7.7-2.4,9.3-5.2V86.4z"/><path style="fill:#C7C5B4;" d="M65.5,84.2c0,0-4.7,3.9-4.9,11c-0.2,7.1,1.8,15.4,2.2,16c0.4,0.6,1.7-11.4,5.5-16.9 c0.3-0.5-0.1-1.1-0.6-1.4l-2.4-1.5c-0.2-0.2-0.3-0.5-0.2-0.7c0.1-0.1,0.2-0.2,0.4-0.2l2.5-0.3c0.5,0,0.9-0.5,1-1l0.8-7.1L65.5,84.2 z"/><path style="fill:#E0DDCB;" d="M62.2,96c0-1.3,0-1.3,0.2-2.4c0.2-1.1,5.2,0.3,5.3,0.1c0.2-0.6-4.5-3.2-4.2-3.7c1.4-3.3,3.5-5,3.5-5 l2.7-1.3l0.2-1.7l-4.5,2.2c0,0-4.7,3.9-4.9,11c-0.2,7.1,1.8,15.4,2.2,16c0.1,0.2,0.3-0.9,0.7-2.6C62.8,105.4,62.1,100.5,62.2,96z" /><path style="opacity:0.3;fill:#102030;enable-background:new ;" d="M54.3,85.8c0.3,0.1,1.3,1,1.3,2l-0.1,0.7 c0.6,0.5,1.5,0.8,2.8,0.8c1,0,2.4-0.3,4-0.8l0.7-1.2l0.6-0.2c0.4-0.2,1.2,0.2,1.7,0.1c0.7-0.3,1.1-1.1,1.9-1.4 c3.2-1,6.5-1.8,9.8-2.4c0,0-13.3-2.3-21.7,1.8C54.8,85.4,54.5,85.6,54.3,85.8z"/><g><defs><path id="SVGID_15_" d="M52.9,79.2c-0.3,0.9-0.4,1.8-0.2,2.7c0.7,3.7,2.8,5.2,5.6,4.8c1.3-0.2,1.7-0.4,1.9-0.6 c0.1-0.1,0.2-0.1,0.2,0c0.5,0.3,3,1.3,4.9-0.1c4-2.8,4.2-1,6.8-2.9s2.6-2.2,4.7-2.9c1.3-0.4,3.3,1,5.3,0.7c0,0,0.3-2.7-1.2-2.9 c0,0,1-3.2-1.3-3.8s-3.2,2.2-3.2,2.2s-0.2-2.8-2.2-2.8s-1.9,1-3.6,1.3c-1,0.2-2.8-1.1-5.6,1.3c-1.2,1-1.4,2.7-2.7,3.1 c-0.1,0-0.2,0.2-0.3,0.1C60.4,77.8,55.9,78.2,52.9,79.2z"/></defs><clipPath id="SVGID_16_"><use xlink:href="#SVGID_15_" style="overflow:visible;"/></clipPath><g style="clip-path:url(#SVGID_16_);"><rect x="48.5" y="70.1" style="fill:#D4E0EB;" width="39.3" height="21.5"/><g><path style="fill:#E2EFFA;" d="M64,78.3h0.2c0.2,0,0.4-0.1,0.6-0.1c0.7-0.2,1.3-0.6,1.7-1.1c0.4-0.5,1-1,1.5-1.4 c0.3-0.2,0.6-0.3,0.9-0.4c0.2-0.1,0.6-0.3,0.8-0.3c-1.1-0.2-2.6-0.4-4.8,1.4c-0.6,0.5-1,1.2-1.4,1.9 C63.8,78.3,63.9,78.3,64,78.3z"/><path style="fill:#E2EFFA;" d="M55,82.2l-0.5,0c-0.7-0.1-1.3-0.4-1.9-0.9c0,0.2,0,0.4,0.1,0.6c0.7,3.7,2.8,5.2,5.6,4.8l0.3-0.1 C56.9,86.2,55.6,84.7,55,82.2z"/></g><path style="fill:#B3BEC7;" d="M57.1,78.8L57.1,78.8c-0.1-0.2-0.8-1.1-2.6,0.2c-1.8,1.4-3.4,0.8-4,0.4c0,0-0.1,0-0.1,0 c0,0,0,0.1,0,0.1c0.8,1.2,2.2,2,3.7,2.2c1.8,0.1,2.9-0.2,3-0.6c0,0,0,0,0,0c0,0,0,0,0,0c0.3,0.5,1,0.9,2.4,0.9s3.8-1,4.7-2.4 c0.1-0.1,0-0.2-0.1-0.3c0,0-0.1,0-0.1,0c-0.5,0.1-1.2,0.6-2.2,0.4s-2.1-1.4-3.2-1.4C58.2,78.2,57.4,78.3,57.1,78.8z"/><ellipse style="fill:#737980;" cx="57.1" cy="80.3" rx="1" ry="0.4"/><path style="fill:#B1BEC9;" d="M83.1,80.6c-0.1-0.1-1.2-2.4-1.2-2.4c-0.1-0.4-0.6-3.5-1.9-4.6c-0.7-0.5-1.7,0.6-1.3,1.3 c0.7,1.1,0.9,2.2,0.4,3.3c-0.2-0.3-0.8-0.4-1,0c-0.2,0.4-2.8,2.2-4.4,2.6c0-0.1,0-0.2-0.1-0.3c0-0.3-0.3-0.5-0.6-0.4 c-0.1,0-1.7,3.4-5.5,4c0.1,0,0.3-0.7,0.3-0.8c0.1-0.5-0.6-0.9-0.6-0.9c-0.1,0-0.5,0.7-0.6,0.8c-1,1.2-2.4,2.6-3.9,2.9 c-0.5,0.1-1.1,0.1-1.6-0.1c-0.9-0.3-1.8,1.3-0.8,1.6C61.6,88,83.8,81.2,83.1,80.6z"/><path style="fill:#BFCAD4;" d="M75.6,72.4c-0.3-0.5-0.8-0.3-1.2,0.1c-0.2-0.2-0.5-0.5-0.8-0.7c-0.7-0.5-1.8,0.7-1.3,1.3 c0.5-0.1,1.1,0.2,1.4,0.6c0.7,1,1.1,2.3,1,3.5c0.2,0.4,0.9,0.4,1.2-0.1C77.1,75.7,76.3,73.9,75.6,72.4z"/><path style="fill:#E2EFFA;" d="M57.9,82.5c0.4,1.1,1.1,2,2,2.7c0,0,0.4-2.5,2.4-3C62.3,82.2,59.8,82.8,57.9,82.5z"/><path style="fill:#9DA7B3;" d="M76.8,80.2c0,0,2.6-0.5,3.2-1.9c1-2.2,0.7-3.5,0-4.1c0,0,3.3,1,2.7,6.9 C82.7,81.2,80.1,81.9,76.8,80.2z"/></g></g><path style="fill:none;stroke:#2E291F;stroke-width:3;stroke-linecap:round;stroke-linejoin:round;" d="M71.3,68.6 c0,0-1.2,0.5-4.8,1.1"/><g><path style="fill:#473F33;" d="M66.2,69.3c-1-1.1-2.7-1.1-4.3-1.2h-1.1c-0.8,0-1.7,0.1-2.5,0.3c-0.2,0.1-0.4,0.2-0.6,0.3 c-0.4,0.2-0.9,0.2-1.3-0.1c-0.2-0.2-0.5-0.3-0.8-0.4c-0.7-0.2-1.5-0.3-2.2-0.3h-1c-0.7,0-1.4,0.1-2.1,0.8c-0.7,0.7-0.7,1.2-0.7,2 c0.1,3,1,4.8,3.1,4.8h0.2c1.1-0.1,2.2-0.5,3.1-1.2l0.2-0.2c0.5-0.5,1.2-0.5,1.7,0c1,0.9,2.4,1.5,4.2,1.7h0.5 c2.4,0,4.2-1.8,4.3-4.6C66.9,70.5,66.7,69.8,66.2,69.3z"/><path style="fill:#FFFFFF;stroke:#889396;stroke-width:2;stroke-linecap:round;stroke-linejoin:round;" d="M61.7,69.8 c1.5,0.1,3.3,0.1,3.2,1.5s-1.1,2.9-2.8,2.8c-2.1-0.2-3.7-1.2-3.7-3.1C58.4,69.6,60.6,69.7,61.7,69.8z"/></g><g><path style="fill:#473F33;" d="M66.2,69.3c-1-1.1-2.7-1.1-4.3-1.2h-1.1c-0.8,0-1.7,0.1-2.5,0.3c-0.2,0.1-0.4,0.2-0.6,0.3 c-0.4,0.2-0.9,0.2-1.3-0.1c-0.2-0.2-0.5-0.3-0.8-0.4c-0.7-0.2-1.5-0.3-2.2-0.3h-1c-0.7,0-1.4,0.1-2.1,0.8c-0.7,0.7-0.7,1.2-0.7,2 c0.1,3,1,4.8,3.1,4.8h0.2c1.1-0.1,2.2-0.5,3.1-1.2l0.2-0.2c0.5-0.5,1.2-0.5,1.7,0c1,0.9,2.4,1.5,4.2,1.7h0.5 c2.4,0,4.2-1.8,4.3-4.6C66.9,70.5,66.7,69.8,66.2,69.3z"/><g><path style="fill:#A8CDFF;" d="M61.7,69.8c1.5,0.1,3.3,0.1,3.2,1.5s-1.1,2.9-2.8,2.8c-2.1-0.2-3.7-1.2-3.7-3.1 C58.4,69.6,60.6,69.7,61.7,69.8z"/><path style="fill:#889396;" d="M62.4,74.4h-0.3c-2.5-0.2-4.1-1.5-4.1-3.5c0-0.3,0.1-0.7,0.4-0.9c0.7-0.6,2-0.7,3.3-0.6h0.1 c1.1,0.1,2.5,0.1,3.1,0.8c0.3,0.3,0.4,0.7,0.4,1.1c-0.1,1.1-0.4,1.9-1.1,2.5C63.7,74.2,63,74.4,62.4,74.4z M61,70.1 c-0.7,0-1.7,0.1-2.1,0.4c-0.1,0.1-0.2,0.2-0.1,0.4c0,1.5,1.3,2.6,3.4,2.7c0.6,0.1,1.1-0.1,1.6-0.4c0.5-0.4,0.8-1.1,0.8-2 c0-0.2,0-0.4-0.2-0.5c-0.4-0.5-1.6-0.5-2.6-0.6L61,70.1L61,70.1z"/><path style="fill:#BCCACF;" d="M62.4,74.4c-2.5-0.2-4.1-1.5-4.1-3.5c0-0.3,0.1-0.7,0.4-0.9c0.5-0.5,1.4-0.6,2.3-0.6 c-1.1,0-2.2,0.1-2.7,0.6c-0.3,0.2-0.4,0.6-0.4,0.9c0,1.9,1.5,3.3,4.1,3.5H62.4z"/></g></g><path style="fill:#343D45;" d="M32.7,73.1l3.7,13.4c0.1,0.5,0.6,0.9,1.1,0.9l6.1,0.4c0.5,0,0.9-0.3,1-0.8c0-0.1,0-0.2,0-0.3 l-3.7-13.4c-0.1-0.5-0.6-0.8-1.1-0.9l-6.3-0.3c-0.4,0-0.8,0.3-0.8,0.7C32.6,73,32.6,73.1,32.7,73.1z"/><path style="fill:#F5E5B5;" d="M37.9,87.4c-0.5,0-1-0.4-1.1-0.9l-3.7-13.4c-0.1-0.4,0.1-0.9,0.6-1c0,0,0.1,0,0.1,0h-0.2 c-0.4,0-0.8,0.3-0.8,0.7c0,0.1,0,0.2,0,0.3l3.7,13.4c0.1,0.5,0.6,0.9,1.1,0.9l6.1,0.4h0.2L37.9,87.4z"/><g><defs><path id="SVGID_17_" d="M62.5,116.6c0,0-4.8,0.5-8,0.1c-1.5-0.2-6.2-1.5-7.3-1.8c-0.1,0-0.2-0.1-0.2-0.2v-0.5 c0-0.2,0.1-0.3,0.2-0.4l1.7-1.5c0.2-0.2,0.4-0.3,0.7-0.4l2.7-0.7l0.5-0.1c0.6-0.1,1.9-0.2,2.8-0.2c4.9-0.2,6.8-0.4,6.8-0.4 L62.5,116.6z"/></defs><clipPath id="SVGID_18_"><use xlink:href="#SVGID_17_" style="overflow:visible;"/></clipPath><g style="clip-path:url(#SVGID_18_);"><rect x="44.2" y="107.5" style="fill:#F5B07B;" width="24.5" height="15.6"/><path style="fill:#D99669;" d="M45.3,113c0,0,1,1.9,2.4,1c1.5-0.9,7-0.7,7-0.7s4.3,0.1,4.7-2.7c0.5-2.8-7.8-0.5-7.8-0.5L45.3,113 z"/><path style="fill:#AB6E4D;" d="M46.8,114.4l1.5-0.8h0l1.5-0.2h0l3.2,0c0,0,0,0,0,0c0,0,0,0,0,0l0,0l-3.2,0h0l-1.5,0.3h0l-1.5,0.8 c0,0-0.1,0-0.1,0C46.7,114.5,46.7,114.4,46.8,114.4L46.8,114.4z"/><path style="fill:#AB6E4D;" d="M47.5,113l1.4-0.7h0l2-0.3h0l3.2,0c0,0,0,0,0,0c0,0,0,0,0,0l-3.2,0h0l-2,0.4h0l-1.4,0.7 c0,0-0.1,0-0.1-0.1C47.4,113.1,47.5,113.1,47.5,113L47.5,113z"/><path style="fill:#AB6E4D;" d="M48.2,111.8l3.9-0.7h0l3.2-0.1c0,0,0,0.1,0,0.1c0,0,0,0,0,0l-3.2,0.1h0l-3.9,0.6 C48.2,111.9,48.2,111.9,48.2,111.8C48.1,111.8,48.2,111.8,48.2,111.8L48.2,111.8z"/><path style="fill:#F5E5B5;" d="M45.4,115.3c0,0,2.6-1,6.9-0.2s8.8,4.1,8.8,4.1l-5.6-0.2L45.4,115.3z"/></g></g><ellipse transform="matrix(0.9874 -0.1582 0.1582 0.9874 -14.1701 7.224)" style="fill:#E0DDCB;" cx="38.3" cy="92.6" rx="5.1" ry="2.6"/><path style="fill:#C7C5B4;" d="M43.3,91.9c-0.1-0.7-0.7-1.2-1.6-1.5c0.5,0.3,0.9,0.7,0.9,1.2c0.2,1.4-1.8,2.9-4.6,3.4 c-1.5,0.2-2.8,0.1-3.8-0.3c1,0.6,2.7,0.9,4.5,0.6C41.5,94.8,43.5,93.3,43.3,91.9z"/><path style="fill:#FFFCED;" d="M34.5,94.2c-0.2-1.4,1.8-2.9,4.6-3.4c1.4-0.2,2.7-0.1,3.7,0.2c-0.9-0.8-2.8-1.2-4.9-0.9 c-2.8,0.4-4.8,1.9-4.6,3.4c0.1,0.7,0.8,1.3,1.7,1.6C34.8,94.9,34.6,94.5,34.5,94.2z"/><path style="fill:#C7C5B4;" d="M36.1,92.5c0,0,3.6,0.8,4.7,1.8c0,0,2.5-0.9,2-2.4c-0.6-0.4-1.2-0.7-1.8-0.8 C39.8,90.8,36.1,92.5,36.1,92.5z"/><ellipse style="fill:#E0DDCB;" cx="62" cy="114.1" rx="4.1" ry="4.9"/><path style="fill:#C7C5B4;" d="M62,109.1c1.8,0.6,3.1,2.5,3.1,4.8s-1.8,2.9-3.2,3.6c-0.5,0.3,0.3,1.1-0.9,1.3l0,0 c0.3,0.1,0.7,0.2,1,0.2c2.3,0,4.1-2.2,4.1-4.9C66.1,111.3,64.3,109.1,62,109.1z"/><path style="fill:#FFFCED;" d="M58.8,114.7c0-2.7,1.9-4.9,4.1-4.9c0.5,0,1,0.1,1.5,0.3c-0.7-0.6-1.6-1-2.5-1 c-2.3,0-4.1,2.2-4.1,4.9c0,2.1,1.1,3.9,2.7,4.6C59.5,117.8,58.8,116.3,58.8,114.7z"/><g><defs><path id="SVGID_19_" d="M35.9,92.4c0,0,0-1.3-0.4-2.2c-0.2-0.4-2.7-4.8-2.4-5.8s0.7-3.2,0.9-3.7s1.8-2.2,2.5-2.9 c0.7-0.8,2.4-1.5,2.7-1.5c1.5,0,3.4,6.6,3,8c-0.2,0.6-1.1,2.3-1.1,2.3c-0.2,0.9-0.1,2.8-0.1,2.8c0.1,2,0.3,2.2,0.3,2.2 c-0.9,0.5-1.8,0.9-2.8,1.1C37.7,92.8,36.8,92.7,35.9,92.4z"/></defs><clipPath id="SVGID_20_"><use xlink:href="#SVGID_19_" style="overflow:visible;"/></clipPath><g style="clip-path:url(#SVGID_20_);"><rect x="30.6" y="72.9" style="fill:#F5B07B;" width="14.6" height="22.5"/><path style="fill:#D99669;" d="M39.9,75.6l-3.2,1.3l-1.1,2c-0.2,0.4,0.1,0.7,0.3,1.1c0.6,1.1,1.8,3.9,4,5.3 c0.7,0.4-0.4,1.5-0.4,2.5c0.1,2.4,0.8,6,0.9,6.3s1.4-1,1.5-0.5l1.2-9.7L40.9,76L39.9,75.6z"/><path style="fill:#AB6E4D;" d="M40.8,77l-2.7,1.7h0l-2,2.4h0l-1.2,3h-0.1c0,0,0,0,0,0c0,0,0,0,0,0L36,81h0l2-2.4h0L40.8,77 C40.8,76.9,40.8,76.9,40.8,77C40.8,77,40.8,77,40.8,77L40.8,77z"/><path style="fill:#AB6E4D;" d="M42,78.7l-2.5,1.6h0l-1.8,2h0l-1.3,2.8h-0.1c0,0,0,0,0,0c0,0,0,0,0,0l1.2-2.8h0l1.8-2h0L42,78.7 C41.9,78.6,42,78.7,42,78.7C42,78.7,42,78.8,42,78.7L42,78.7z"/><path style="fill:#AB6E4D;" d="M43.3,80.8l-2.6,1.6h0l-1.3,1.3v0l-1,2.2h-0.1c0,0,0,0,0,0c0,0,0,0,0,0l0.9-2.2h0l1.3-1.3h0 l2.6-1.6C43.2,80.7,43.3,80.7,43.3,80.8C43.3,80.8,43.3,80.9,43.3,80.8L43.3,80.8z"/><path style="fill:#F5E5B5;" d="M36,77.3c0,0-0.8,2.3-1.2,3c-0.4,0.8-0.9,4.6-0.9,4.6l2.3,4.7l1.1,5.6l-2.9-1.1L32,83.9l1.9-4.2 L36,77.3z"/></g></g><g><defs><path id="SVGID_21_" d="M57,77.9C57,77.9,57,77.9,57,77.9C57,77.9,56.9,77.9,57,77.9c-0.2-0.2-0.9-1-2.6,0.3 c-1.7,1.3-3.3,0.9-4,0.4c-0.1,0-0.1,0-0.1,0.1c0,0,0,0.1,0,0.1c0.6,0.9,1.9,2.5,3.6,2.6c1.7,0.1,2.9-0.7,3-1.1c0,0,0,0,0,0 c0,0,0,0,0,0c0.3,0.5,1,0.9,2.4,0.9c1.4,0,3.9-0.5,4.8-1.9c0.1-0.1,0.1-0.3,0-0.3c-0.1,0-0.1-0.1-0.2-0.1c-0.7,0.1-1.5,0-2.2-0.1 c-1.1-0.2-2.1-1.4-3.2-1.4C58.1,77.3,57.4,77.4,57,77.9z"/></defs><clipPath id="SVGID_22_"><use xlink:href="#SVGID_21_" style="overflow:visible;"/></clipPath><g style="clip-path:url(#SVGID_22_);"><rect x="48.9" y="75.3" style="fill:#E6F3FF;" width="17.2" height="7.9"/><path style="fill:#D5E0EB;" d="M56.9,78.8c-0.1-0.8,0,1.1-1.4,1.7c-1.4,0.7-2.6,0.6-3,0.6c0,0,0.6,0.4,0.6,0.4l1.3,0.1 c0.4,0,0.9-0.1,1.3-0.2l0.5-0.4C57.1,80.3,57.1,79.9,56.9,78.8z"/><path style="fill:#FFFFEB;" d="M56.5,77.5c-0.9-0.4-1.4,0.1-2.1,0.5c-1,0.6-2.7-0.2-3.7-0.5c-1.1-0.3-1.2,2.2-1,2.4 c0.6,0.7,5.5,2.2,4.6,1.7c-1.2-0.6-1.9-1.1-2.4-2c0.4,0.1,1.5,0.4,2.4,0.1c0.4-0.1,1.1-0.9,1.5-0.7 C56.5,79.5,57.4,77.9,56.5,77.5z"/><path style="fill:#FFFFFF;" d="M61.2,77l-0.3,0c-0.1-0.1-0.2-0.1-0.3-0.1c-0.9-0.1-2,0-2.6,0.7c-0.3,0.2-0.5,0.5-0.5,0.8 c0,0.1,0,0.2,0.1,0.3c0,0.2,0.2,0.3,0.3,0.4c0.3,0.1,0.6,0,0.8-0.2c0.7-0.2,1.4-0.2,2-0.1C61.6,78.8,62.3,77.1,61.2,77z"/><path style="fill:#FFFFFF;" d="M66.2,77.9c-0.1-0.2-0.3-0.2-0.4-0.3c0.1-0.3-0.2-0.7-0.5-0.7c0,0,0,0-0.1,0 c-0.4,0-0.7,0.2-0.9,0.5H64l-0.1,0c-0.2-0.1-0.4-0.2-0.6-0.3c-0.2-0.5-0.9-0.3-1.2,0.1c-0.2,0.2-0.4,0.5-0.4,0.8 c-0.1,0.4-0.1,0.7,0.3,0.9h0c0.4,0.3,0.8,0.6,1.3,0.7c0.4,0.1,0.9,0.1,1.3,0c0.4-0.1,0.8-0.2,1.1-0.5 C66.2,78.9,66.4,78.3,66.2,77.9z"/></g></g><g><defs><path id="SVGID_23_" d="M76.8,96.7c1.8,3.8-0.9,9-1.9,10c-3.8,3.5-10.2,3.3-11.4,3.3c-0.2,0-0.4,0-0.6,0.1 c-0.7,0.2-2.2,0.9-2.6,3.4c-0.4,2.5,0.8,3.7,1.4,4.1c0.1,0.1,0.3,0.1,0.4,0.1c1.6,0.2,13.1,1.1,18.7-3.1c5.9-4.6,6-14.9,4.4-20.4 c-1.5-5.5-3.7-8.6-5.2-9.1c-1.5-0.6-4.2,1.7-4.7,5.1C74.8,92.3,75.8,94.7,76.8,96.7z"/></defs><clipPath id="SVGID_24_"><use xlink:href="#SVGID_23_" style="overflow:visible;"/></clipPath><g style="clip-path:url(#SVGID_24_);"><rect x="58.7" y="76.7" style="fill:#824D24;" width="30.2" height="45.6"/><path style="fill:#6B3614;" d="M85.8,91.5c0-0.1,0-0.2,0-0.3c-0.1-1.2-0.4-2.4-0.9-3.5c-0.2-0.9-0.4-1.8-0.7-2.6 c-0.3-1.2-1.1-1.6-1.9-1.5c-0.5-0.6-1.1-1.1-1.7-1.6c-2.5-1.9-6,2.2-3.9,4.5c7.3,8.2,5.8,17.2,2.2,22.4s-15.7,5.6-19.7,6 c-1.6,0.1-3,1.2-3.4,2.8c-0.3,1.2,0.2,3.1,1.8,2.9c4.8-0.5,9.7-1,14.4-2.1c4.3-1,8.8-2.6,11.4-6.3C87.6,106,87.2,98.6,85.8,91.5z "/></g></g><g><ellipse transform="matrix(0.1495 -0.9888 0.9888 0.1495 -12.5079 130.8412)" style="fill:#6B4938;" cx="69.8" cy="72.7" rx="2.5" ry="1.7"/><polygon style="fill:#6B4938;" points="70.1,75.2 69.2,75.1 70,70.1 70.9,70.3 "/><ellipse transform="matrix(0.1495 -0.9888 0.9888 0.1495 -11.962 131.7178)" style="fill:#825D41;" cx="70.6" cy="72.8" rx="2.5" ry="1.7"/><path style="fill:#6B4939;" d="M70.6,71.5c-0.4-0.1-0.9,0.4-1,1.1c0,0.1,0,0.2,0,0.3c0.2-0.5,0.5-0.8,0.9-0.8 c0.4,0.1,0.6,0.5,0.6,1c0-0.1,0.1-0.2,0.1-0.3C71.3,72.2,71.1,71.6,70.6,71.5z"/></g><path style="fill:#828148;" d="M51.2,68c-0.4,0.1-0.7,0.4-0.9,0.6c-0.5,0.5-0.7,1.2-0.7,2c0.1,2.5,0.7,4.2,2.2,4.7 C50.5,71.3,51,68.7,51.2,68z"/><g><path style="fill:#FAFFDB;" d="M53.2,69.5c-0.9,0-2.3-0.2-2.3,1.3c0.1,1.5,0.6,3,2,2.9c1.4-0.1,2.9-1,2.9-2.9 C55.8,69.5,53.9,69.6,53.2,69.5z"/><path style="fill:#889396;" d="M52.8,74.2c-0.5,0-0.9-0.2-1.3-0.5c-0.8-0.7-0.9-1.9-1-2.8c0-0.4,0.1-0.9,0.4-1.2 c0.5-0.5,1.4-0.5,2.1-0.5h0.3c0.8,0,2.9,0.1,2.8,1.7c0,2.1-1.7,3.2-3.3,3.3L52.8,74.2z M52.6,69.9c-0.4,0-0.9,0-1.1,0.3 c-0.2,0.2-0.2,0.4-0.2,0.7c0,1.1,0.3,1.9,0.7,2.3c0.2,0.2,0.5,0.3,0.9,0.3c1.2-0.1,2.5-0.9,2.6-2.5c0-0.8-1.1-0.9-2.1-1L52.6,69.9 L52.6,69.9z"/><path style="fill:#BCCACF;" d="M51.9,73.7c-0.8-0.7-0.9-1.9-1-2.8c0-0.4,0.1-0.9,0.4-1.2c0.4-0.4,0.9-0.5,1.4-0.5 c-0.6,0-1.4,0-1.8,0.5c-0.3,0.3-0.5,0.8-0.4,1.2c0,0.9,0.2,2.2,1,2.8c0.3,0.3,0.8,0.5,1.3,0.5H53C52.6,74.1,52.2,74,51.9,73.7z"/></g><path style="fill:#BFCAD4;" d="M72.6,77.4c0.3,0.7,1,2.7-1.7,3.5c0,0-0.1,0-0.1-0.1c0,0,0,0,0,0c0.5-0.4,1.6-1.6,1.6-3.4 C72.4,77.4,72.4,77.4,72.6,77.4C72.5,77.4,72.6,77.4,72.6,77.4z"/><path style="fill:#E2EFFA;" d="M70.7,78.7c-0.4-1.1-1.1-4.1,2.8-4.8c0,0,0.1,0,0.1,0.1c0,0,0,0.1,0,0.1c-0.8,0.6-2.5,2.1-2.7,4.6 C70.9,78.8,70.8,78.8,70.7,78.7C70.8,78.8,70.8,78.7,70.7,78.7z"/><path style="fill:#E2EFFA;" d="M65.4,82.2c-0.3-1.1-0.6-4.2,3.4-4.5c0.1,0,0.1,0,0.1,0.1c0,0.1,0,0.1-0.1,0.1l0,0 c-0.8,0.5-2.7,1.8-3.2,4.3C65.6,82.3,65.6,82.3,65.4,82.2C65.5,82.3,65.4,82.3,65.4,82.2z"/><path style="fill:#D4E0EB;" d="M86.4,90.6c0.1-1-0.3-3.2,3-2.3c0,0,0.1,0,0.1,0.1s0,0.1-0.1,0.1c-0.8,0.1-1.7,0.3-2.9,2.2 c0,0-0.1,0.1-0.1,0S86.3,90.6,86.4,90.6z"/><polyline points="82.8,69.7 87.2,123.2 86.4,123.2 82.4,69.6 "/><path style="fill:#F5B07B;" d="M58,74.7c0,0-0.3-2.5-1.1-2.4c-0.1,0-1.1,3.9-1.1,3.9s-0.1,0.7,0.4,0.7c0.6,0,1.2-0.2,1.7-0.5 C58.6,75.9,58,74.7,58,74.7z"/><g><path style="fill:#F5B07B;" d="M55.4,76.6c-0.1,0.3,0.5,0.5,0.8,0.6c0.7,0.1,1.4,0,1.9-0.5"/><path style="fill:#C46E41;" d="M55.4,76.6L55.4,76.6c0,0.1,0,0.1,0,0.1c0,0.1,0.1,0.2,0.2,0.2c0.1,0.1,0.3,0.1,0.4,0.2 c0.2,0,0.4,0.1,0.5,0.1c0.2,0,0.4,0,0.5-0.1c0.1,0,0.3-0.1,0.4-0.2l0.3-0.2l0.1-0.1l0,0c0,0,0.1,0,0.1,0c0,0,0,0.1,0,0.1L58,76.8 L57.7,77c-0.1,0.1-0.3,0.1-0.5,0.2c-0.2,0-0.4,0.1-0.6,0.1c-0.2,0-0.4,0-0.6-0.1c-0.2,0-0.3-0.1-0.5-0.2c-0.1-0.1-0.2-0.2-0.2-0.3 C55.4,76.7,55.4,76.7,55.4,76.6L55.4,76.6L55.4,76.6C55.4,76.6,55.4,76.6,55.4,76.6C55.5,76.6,55.5,76.6,55.4,76.6L55.4,76.6z"/></g><path style="fill:#F5E5B5;" d="M55.9,76.3c0,0,1.2-3.4,1.4-3.8c-0.1-0.1-0.2-0.2-0.4-0.2c-0.1,0-1.4,3.8-1.4,3.8s-0.1,0.7,0.4,0.7 H56C55.9,76.7,55.8,76.5,55.9,76.3z"/></g></svg>
